<svg id="Capa_1" data-name="Capa 1" xmlns="http://www.w3.org/2000/svg" viewBox="0 0 855 336">
  <defs>
    <style>
      .cls-1 {
        fill: #981540;
      }

      .cls-2 {
        fill: #fff;
        opacity: 0.2;
        isolation: isolate;
      }

      .cls-3 {
        fill: #c81524;
      }

      .cls-4 {
        fill: #bb1826;
      }

      .cls-5 {
        fill: #af173b;
      }

      .cls-6 {
        fill: #d31124;
      }

      .cls-7 {
        fill: #a4163d;
      }

      .cls-8 {
        fill: #bb1639;
      }

      .cls-9 {
        fill: #df0922;
      }
    </style>
  </defs>
  <title>logo_adapt_1</title>
  <g>
    <polygon class="cls-1" points="598.1 172 589.6 172 581.1 172 572.6 172 564 172 555.5 172 547 172 538 172 538 180.8 538 189.4 538 197 538 198 547 198 556 198 556 206.5 556 215 556 215.1 556 223.6 556 232.2 556 235 556 240.8 556 248 556 249.3 556 256 556 257.9 556 266.4 556 275 556 280 556 283.6 556 292.1 556 300.7 556 306 556 309.3 556 317.8 556 326.4 556 335 564 335 572.6 335 581.1 335 589.6 335 598 335 598 326.4 598 317.8 598 309.3 598 306 598 300.7 598 292.1 598 283.6 598 280 598 275 598 266.4 598 257.9 598 256 598 249.3 598 248 598 240.8 598 235 598 232.2 598 223.6 598 215.1 598 215 598 206.5 598 198 606.6 198 615 198 615 197 615 189.4 615 180.8 615 172 606.6 172 598.1 172"/>
    <polygon class="cls-1" points="385.1 172 376.6 172 368.1 172 359.6 172 351 172 343 172 343 181 334 181 334 189.4 334 197 334 197.9 334 206.5 334 215 334 215.1 334 223.6 334 232.2 334 235 334 240.8 334 248 334 249.3 334 256 334 257.9 334 266.4 334 275 334 280 334 283.6 334 292.1 334 300.7 334 306 334 309.3 334 317.8 334 326.4 334 335 342.5 335 351 335 359.6 335 368.1 335 376.6 335 385.1 335 393.6 335 402 335 402 326.4 402 317.8 402 309 393.6 309 385.1 309 377 309 377 306 377 300.7 377 292.1 377 283.6 377 280 377 275 377 266.4 377 258 385.1 258 393.6 258 402 258 402 256 402 249.3 402 248 402 240.8 402 235 402 232 393.6 232 385.1 232 377 232 377 223.6 377 215.1 377 215 377 206.5 377 198 385.1 198 393.6 198 402 198 402 197 402 189.4 402 180.8 402 172 393.6 172 385.1 172"/>
    <polygon class="cls-1" points="299.9 172 291.4 172 282.9 172 274.4 172 265.8 172 257 172 257 181 249 181 249 189.4 249 197 249 197.9 249 206.5 249 215 249 215.1 249 223.6 249 232.2 249 235 249 240.8 249 248 249 249.3 249 256 249 257.9 249 266.4 249 275 249 280 249 283.6 249 292.1 249 300.7 249 306 249 309.3 249 317.8 249 326.4 249 335 257.3 335 265.8 335 274.4 335 282.9 335 291 335 291 326.4 291 317.8 291 309.3 291 306 291 300.7 291 292.1 291 283.6 291 280 291 275 291 266.4 291 258 299.9 258 308.4 258 317 258 317 256 317 249.3 317 248 317 240.8 317 235 317 232 308.4 232 299.9 232 291 232 291 223.6 291 215.1 291 215 291 206.5 291 198 299.9 198 308.4 198 317 198 317 197 317 189.4 317 180.8 317 172 308.4 172 299.9 172"/>
    <polygon class="cls-1" points="51.9 1 43.4 1 34.9 1 26.4 1 17.8 1 9 1 9 10 1 10 1 18.4 1 26.9 1 27 1 35.5 1 44.1 1 45 1 52.6 1 61.2 1 65 1 69.8 1 78 1 78.3 1 86 1 86.9 1 95.4 1 104 1 110 1 112.6 1 121.1 1 129.7 1 136 1 138.3 1 146.8 1 155.4 1 164 9.3 164 17.8 164 26.4 164 34.9 164 43 164 43 155.4 43 146.8 43 138.3 43 136 43 129.7 43 121.1 43 112.6 43 110 43 104 43 95.4 43 87 51.9 87 60.4 87 69 87 69 86 69 78.3 69 78 69 69.8 69 65 69 61 60.4 61 51.9 61 43 61 43 52.6 43 45 43 44.1 43 35.5 43 27 51.9 27 60.4 27 69 27 69 18.4 69 9.8 69 1 60.4 1 51.9 1"/>
    <polygon class="cls-1" points="334 155.1 334 146.5 334 138 325.5 138 317 138 308 138 308 136 308 129.4 308 120.9 308 112.3 308 110 308 103.7 308 95.2 308 86.6 308 86 308 78 308 78 308 69.5 308 65 308 60.9 308 52.3 308 45 308 43.8 308 35.2 308 27 308 26.7 308 18.1 308 9.5 308 1 299.9 1 291.4 1 282.9 1 274.4 1 266 1 266 9.5 266 18.1 266 26.7 266 27 266 35.2 266 43.8 266 45 266 52.3 266 60.9 266 65 266 69.5 266 78 266 78 266 86 266 86.6 266 95.2 266 103.7 266 110 266 112.3 266 120.9 266 129.4 266 136 266 138 266 146.5 266 155.1 266 164 274.4 164 282.9 164 291.4 164 299.9 164 308.4 164 317 164 325.5 164 334 164 334 155.1"/>
    <polygon class="cls-1" points="257 155.1 257 146.5 257 138 248.8 138 240.3 138 232 138 232 136 232 129.4 232 120.9 232 112.3 232 110 232 103.7 232 95.2 232 86.6 232 86 232 78 232 78 232 69.5 232 65 232 60.9 232 52.3 232 45 232 43.8 232 35.2 232 27 232 26.7 232 18.1 232 9.5 232 1 223.2 1 214.7 1 206.2 1 197.7 1 189 1 189 9.5 189 18.1 189 26.7 189 27 189 35.2 189 43.8 189 45 189 52.3 189 60.9 189 65 189 69.5 189 78 189 78 189 86 189 86.6 189 95.2 189 103.7 189 110 189 112.3 189 120.9 189 129.4 189 136 189 138 189 146.5 189 155.1 189 164 197.7 164 206.2 164 214.7 164 223.2 164 231.8 164 240.3 164 248.8 164 257 164 257 155.1"/>
    <polygon class="cls-1" points="845 147 845 138 845 136 845 129.4 845 121 837 121 837 112.3 837 110 837 103.7 837 95.2 837 87 828 87 828 86 828 78 828 78 828 69.5 828 65 828 61 837 61 837 52.3 837 45 837 43.8 837 35.2 837 27 845 27 845 18.1 845 9.5 845 1 836.7 1 828.2 1 819.6 1 811 1 811 9.5 811 18.1 811 26.7 811 27 811 35 803 35 803 44 794 44 794 35.2 794 27 794 26.7 794 18.1 794 9.5 794 1 785.6 1 777 1 768.5 1 760 1 751 1 751 9.5 751 18.1 751 26.7 751 27 751 35.2 751 43.8 751 45 751 52.3 751 60.9 751 65 751 69.5 751 78 751 78 751 86 751 86.6 751 95.2 751 103.7 751 110 751 112.3 751 120.9 751 129.4 751 136 751 138 751 146.5 751 155.1 751 164 760 164 768.5 164 777 164 785.6 164 794 164 794 155.1 794 146.5 794 138 794 136 794 129.4 794 120.9 794 112.3 794 110 794 104 803 104 803 110 803 112.3 803 121 811 121 811 129.4 811 136 811 138 811 146.5 811 155.1 811 164 819.6 164 828.2 164 836.7 164 845.2 164 854 164 854 155.1 854 147 845 147"/>
    <polygon class="cls-1" points="436 155 436 147 445 147 445 138 445 136 445 129.4 445 120.9 445 112.3 445 110 445 103.7 445 95.2 445 87 436 87 436 86 436 78 427.7 78 419 78 419 69 410.7 69 402 69 402 65 402 61 393.6 61 385 61 385 52.3 385 45 385 43.8 385 35.2 385 27 394 27 394 18 402 18 402 26.7 402 27 402 35.2 402 43.8 402 45 402 52 410.7 52 419.2 52 427.7 52 436.2 52 445 52 445 45 445 43.8 445 35.2 445 27 445 26.7 445 18 436 18 436 10 428 10 428 1 419.2 1 410.7 1 402.2 1 393.6 1 385.1 1 376.6 1 368.1 1 360 1 360 10 351 10 351 18.1 351 27 343 27 343 35.2 343 43.8 343 45 343 52 351 52 351 60.9 351 65 351 69 360 69 360 78 368.1 78 376.6 78 385 78 385 86 385 87 393.6 87 402 87 402 95.2 402 103.7 402 110 402 112.3 402 120.9 402 129.4 402 136 402 138 393.6 138 385 138 385 136 385 129.4 385 120.9 385 112.3 385 110 385 103.7 385 95 376.6 95 368.1 95 359.6 95 351 95 351 103.7 351 110 351 112.3 351 120.9 351 129.4 351 136 351 138 351 146.5 351 155 359.6 155 368.1 155 377 155 377 164 385.1 164 393.6 164 402.2 164 410.7 164 419 164 419 155 427.7 155 436 155"/>
    <path class="cls-1" d="M624,120.9V78h0V69h-9V1H556V35h-9V78h0V95h-9v69.2h35V129h25v35.1h33.9V129h-8v-8.1ZM581,78h0V61h9V78h0v26H573V87h8V78Z"/>
    <polygon class="cls-1" points="734 27 734 26.7 734 18.1 734 10 726 10 726 1 717.4 1 708.9 1 700.4 1 691.8 1 683.3 1 674.8 1 666.3 1 658 1 658 10 649 10 649 18 641 18 641 26.7 641 27 641 35.2 641 43.8 641 45 641 52.3 641 60.9 641 65 641 69.5 641 78 641 78 641 86 641 86.6 641 95.2 641 103.7 641 110 641 112.3 641 120.9 641 129.4 641 136 641 138 641 147 649 147 649 155 658 155 658 164 666.3 164 674.8 164 683.3 164 691.8 164 700.4 164 708.9 164 717 164 717 155 725.9 155 734 155 734 146.5 734 138 734 136 734 129.4 734 120.9 734 112.3 734 110 734 103.7 734 95 725.9 95 717.4 95 708.9 95 700 95 700 103.7 700 110 700 112.3 700 120.9 700 129.4 700 136 700 138 691.8 138 683 138 683 136 683 129.4 683 120.9 683 112.3 683 110 683 103.7 683 95.2 683 86.6 683 86 683 78 683 78 683 69.5 683 65 683 60.9 683 52.3 683 45 683 43.8 683 35.2 683 27 691.8 27 700 27 700 35.2 700 43.8 700 45 700 52 708.9 52 717.4 52 725.9 52 734.4 52 743 52 743 45 743 43.8 743 35 734 35 734 27"/>
    <polygon class="cls-1" points="512.9 1 504.4 1 495.9 1 487.4 1 478.8 1 470.3 1 461.8 1 453 1 453 9.5 453 18.1 453 27 461.8 27 470 27 470 35.2 470 43.8 470 45 470 52.3 470 60.9 470 65 470 69.5 470 78 470 78 470 86 470 86.6 470 95.2 470 103.7 470 110 470 112.3 470 120.9 470 129.4 470 136 470 138 470 146.5 470 155.1 470 164 478.8 164 487.4 164 495.9 164 504.4 164 513 164 513 155.1 513 146.5 513 138 513 136 513 129.4 513 120.9 513 112.3 513 110 513 103.7 513 95.2 513 86.6 513 86 513 78 513 78 513 69.5 513 65 513 60.9 513 52.3 513 45 513 43.8 513 35.2 513 27 521.4 27 530 27 530 18.1 530 9.5 530 1 521.4 1 512.9 1"/>
    <g>
      <polygon class="cls-2" points="555 336 555 199 537 199 537 171 616 171 616 199 599 199 599 336 555 336"/>
      <polygon class="cls-2" points="333 336 333 180 342 180 342 171 403 171 403 199 378 199 378 231 403 231 403 259 378 259 378 308 403 308 403 336 333 336"/>
      <polygon class="cls-2" points="248 336 248 180 256 180 256 171 318 171 318 199 292 199 292 231 318 231 318 259 292 259 292 336 248 336"/>
      <polygon class="cls-2" points="0 165 0 9 8 9 8 0 70 0 70 28 44 28 44 60 70 60 70 88 44 88 44 165 0 165"/>
      <polygon class="cls-2" points="265 165 265 0 309 0 309 137 335 137 335 165 265 165"/>
      <polygon class="cls-2" points="188 165 188 0 233 0 233 137 258 137 258 165 188 165"/>
      <polygon class="cls-2" points="810 165 810 122 802 122 802 105 795 105 795 165 750 165 750 0 795 0 795 43 802 43 802 34 810 34 810 0 846 0 846 28 838 28 838 62 829 62 829 86 838 86 838 120 846 120 846 146 855 146 855 165 810 165"/>
      <polygon class="cls-2" points="376 165 376 156 350 156 350 94 386 94 386 137 401 137 401 88 384 88 384 79 359 79 359 70 350 70 350 53 342 53 342 26 350 26 350 9 359 9 359 0 429 0 429 9 437 9 437 17 446 17 446 53 401 53 401 19 395 19 395 28 386 28 386 60 403 60 403 68 420 68 420 77 437 77 437 86 446 86 446 148 437 148 437 156 420 156 420 165 376 165"/>
      <path class="cls-2" d="M597,165V130H574v35H537V94h9V34h9V0h61V68h9v60h8v37Zm-8-62V62h-7V88h-8v15Z"/>
      <polygon class="cls-2" points="657 165 657 156 648 156 648 148 640 148 640 17 648 17 648 9 657 9 657 0 727 0 727 9 735 9 735 34 744 34 744 53 699 53 699 28 684 28 684 137 699 137 699 94 735 94 735 156 718 156 718 165 657 165"/>
      <polygon class="cls-2" points="469 165 469 28 452 28 452 0 531 0 531 28 514 28 514 165 469 165"/>
      <polygon class="cls-2" points="103 165 103 156 86 156 86 148 77 148 77 0 122 0 122 137 137 137 137 0 182 0 182 130 173 130 173 156 156 156 156 165 103 165"/>
    </g>
    <polygon class="cls-1" points="163.6 1 155.1 1 146.6 1 138 1 138 9.5 138 18.1 138 26.7 138 27 138 35.2 138 43.8 138 45 138 52.3 138 60.9 138 65 138 69.5 138 78 138 78 138 86 138 86.6 138 95.2 138 103.7 138 110 138 112.3 138 120.9 138 129.4 138 136 138 138 129.5 138 121 138 121 136 121 129.4 121 120.9 121 112.3 121 110 121 103.7 121 95.2 121 86.6 121 86 121 78 121 78 121 69.5 121 65 121 60.9 121 52.3 121 45 121 43.8 121 35.2 121 27 121 26.7 121 18.1 121 9.5 121 1 112.5 1 104 1 95.4 1 86.9 1 78 1 78 9.5 78 18.1 78 26.7 78 27 78 35.2 78 43.8 78 45 78 52.3 78 60.9 78 65 78 69.5 78 78 78 78 78 86 78 86.6 78 95.2 78 103.7 78 110 78 112.3 78 120.9 78 129.4 78 136 78 138 78 147 87 147 87 155 95.4 155 104 155 104 164 112.5 164 121 164 129.5 164 138 164 146.6 164 155 164 155 155 163.6 155 172 155 172 146.5 172 138 172 136 172 129 181 129 181 120.9 181 112.3 181 110 181 103.7 181 95.2 181 86.6 181 86 181 78 181 78 181 69.5 181 65 181 60.9 181 52.3 181 45 181 43.8 181 35.2 181 27 181 26.7 181 18.1 181 9.5 181 1 172.1 1 163.6 1"/>
    <polygon class="cls-3" points="556 215.1 556 223.6 556 232.2 556 235 598 235 598 232.2 598 223.6 598 215.1 598 215 556 215 556 215.1"/>
    <polygon class="cls-4" points="556 240.8 556 248 598 248 598 240.8 598 235 556 235 556 240.8"/>
    <polygon class="cls-5" points="556 257.9 556 266.4 556 275 556 280 598 280 598 275 598 266.4 598 257.9 598 256 556 256 556 257.9"/>
    <polygon class="cls-1" points="556 309.3 556 317.8 556 326.4 556 335 564 335 572.6 335 581.1 335 589.6 335 598 335 598 326.4 598 317.8 598 309.3 598 306 556 306 556 309.3"/>
    <polygon class="cls-6" points="598 198 606.6 198 615 198 615 197 538 197 538 198 547 198 556 198 556 206.5 556 215 598 215 598 206.5 598 198"/>
    <polygon class="cls-7" points="556 283.6 556 292.1 556 300.7 556 306 598 306 598 300.7 598 292.1 598 283.6 598 280 556 280 556 283.6"/>
    <polygon class="cls-8" points="556 249.3 556 256 598 256 598 249.3 598 248 556 248 556 249.3"/>
    <polygon class="cls-9" points="615 189.4 615 180.8 615 172 606.6 172 598.1 172 589.6 172 581.1 172 572.6 172 564 172 555.5 172 547 172 538 172 538 180.8 538 189.4 538 197 615 197 615 189.4"/>
    <polygon class="cls-9" points="402 189.4 402 180.8 402 172 393.6 172 385.1 172 376.6 172 368.1 172 359.6 172 351 172 343 172 343 181 334 181 334 189.4 334 197 402 197 402 189.4"/>
    <polygon class="cls-7" points="377 292.1 377 283.6 377 280 334 280 334 283.6 334 292.1 334 300.7 334 306 377 306 377 300.7 377 292.1"/>
    <polygon class="cls-8" points="402 248 334 248 334 249.3 334 256 402 256 402 249.3 402 248"/>
    <polygon class="cls-3" points="334 223.6 334 232.2 334 235 402 235 402 232 393.6 232 385.1 232 377 232 377 223.6 377 215.1 377 215 334 215 334 215.1 334 223.6"/>
    <polygon class="cls-1" points="334 309.3 334 317.8 334 326.4 334 335 342.5 335 351 335 359.6 335 368.1 335 376.6 335 385.1 335 393.6 335 402 335 402 326.4 402 317.8 402 309 393.6 309 385.1 309 377 309 377 306 334 306 334 309.3"/>
    <polygon class="cls-6" points="334 206.5 334 215 377 215 377 206.5 377 198 385.1 198 393.6 198 402 198 402 197 334 197 334 197.9 334 206.5"/>
    <polygon class="cls-5" points="377 266.4 377 258 385.1 258 393.6 258 402 258 402 256 334 256 334 257.9 334 266.4 334 275 334 280 377 280 377 275 377 266.4"/>
    <polygon class="cls-4" points="402 240.8 402 235 334 235 334 240.8 334 248 402 248 402 240.8"/>
    <polygon class="cls-7" points="291 292.1 291 283.6 291 280 249 280 249 283.6 249 292.1 249 300.7 249 306 291 306 291 300.7 291 292.1"/>
    <polygon class="cls-4" points="317 240.8 317 235 249 235 249 240.8 249 248 317 248 317 240.8"/>
    <polygon class="cls-3" points="317 232 308.4 232 299.9 232 291 232 291 223.6 291 215.1 291 215 249 215 249 215.1 249 223.6 249 232.2 249 235 317 235 317 232"/>
    <polygon class="cls-6" points="291 206.5 291 198 299.9 198 308.4 198 317 198 317 197 249 197 249 197.9 249 206.5 249 215 291 215 291 206.5"/>
    <polygon class="cls-5" points="291 275 291 266.4 291 258 299.9 258 308.4 258 317 258 317 256 249 256 249 257.9 249 266.4 249 275 249 280 291 280 291 275"/>
    <polygon class="cls-1" points="249 309.3 249 317.8 249 326.4 249 335 257.3 335 265.8 335 274.4 335 282.9 335 291 335 291 326.4 291 317.8 291 309.3 291 306 249 306 249 309.3"/>
    <polygon class="cls-8" points="317 249.3 317 248 249 248 249 249.3 249 256 317 256 317 249.3"/>
    <polygon class="cls-9" points="317 189.4 317 180.8 317 172 308.4 172 299.9 172 291.4 172 282.9 172 274.4 172 265.8 172 257 172 257 181 249 181 249 189.4 249 197 317 197 317 189.4"/>
    <g>
      <polygon class="cls-4" points="69 69.8 69 65 1 65 1 69.8 1 78 69 78 69 69.8"/>
      <polygon class="cls-7" points="1 121.1 1 129.7 1 136 43 136 43 129.7 43 121.1 43 112.6 43 110 1 110 1 112.6 1 121.1"/>
      <polygon class="cls-8" points="69 78.3 69 78 1 78 1 78.3 1 86 69 86 69 78.3"/>
      <polygon class="cls-5" points="43 104 43 95.4 43 87 51.9 87 60.4 87 69 87 69 86 1 86 1 86.9 1 95.4 1 104 1 110 43 110 43 104"/>
      <polygon class="cls-6" points="43 44.1 43 35.5 43 27 51.9 27 60.4 27 69 27 69 27 1 27 1 26.9 1 35.5 1 44.1 1 45 43 45 43 44.1"/>
      <polygon class="cls-3" points="69 61 60.4 61 51.9 61 43 61 43 52.6 43 45 1 45 1 52.6 1 61.2 1 65 69 65 69 61"/>
      <polygon class="cls-9" points="69 18.4 69 9.8 69 1 60.4 1 51.9 1 43.4 1 34.9 1 26.4 1 17.8 1 9 1 9 10 1 10 1 18.4 1 27 69 27 69 18.4"/>
      <polygon class="cls-1" points="1 138.3 1 146.8 1 155.4 1 164 9.3 164 17.8 164 26.4 164 34.9 164 43 164 43 155.4 43 146.8 43 138.3 43 136 1 136 1 138.3"/>
    </g>
    <g>
      <polygon class="cls-4" points="266 78 308 78 308 69.5 308 65 266 65 266 69.5 266 78"/>
      <polygon class="cls-7" points="308 120.9 308 112.3 308 110 266 110 266 112.3 266 120.9 266 129.4 266 136 308 136 308 129.4 308 120.9"/>
      <polygon class="cls-5" points="308 95.2 308 86.6 308 86 266 86 266 86.6 266 95.2 266 103.7 266 110 308 110 308 103.7 308 95.2"/>
      <polygon class="cls-6" points="266 35.2 266 43.8 266 45 308 45 308 43.8 308 35.2 308 26.7 308 27 266 27 266 26.7 266 35.2"/>
      <polygon class="cls-9" points="308 18.1 308 9.5 308 1 299.9 1 291.4 1 282.9 1 274.4 1 266 1 266 9.5 266 18.1 266 27 308 27 308 18.1"/>
      <polygon class="cls-3" points="266 60.9 266 65 308 65 308 60.9 308 52.3 308 45 266 45 266 52.3 266 60.9"/>
      <polygon class="cls-8" points="308 78 266 78 266 78 266 86 308 86 308 78"/>
      <polygon class="cls-1" points="266 138 266 146.5 266 155.1 266 164 274.4 164 282.9 164 291.4 164 299.9 164 308.4 164 317 164 325.5 164 334 164 334 155.1 334 146.5 334 138 325.5 138 317 138 308 138 308 136 266 136 266 138"/>
      <polygon class="cls-7" points="232 120.9 232 112.3 232 110 189 110 189 112.3 189 120.9 189 129.4 189 136 232 136 232 129.4 232 120.9"/>
      <polygon class="cls-9" points="232 18.1 232 9.5 232 1 223.2 1 214.7 1 206.2 1 197.7 1 189 1 189 9.5 189 18.1 189 27 232 27 232 18.1"/>
      <polygon class="cls-4" points="189 78 232 78 232 69.5 232 65 189 65 189 69.5 189 78"/>
      <polygon class="cls-8" points="232 78 189 78 189 78 189 86 232 86 232 78"/>
      <polygon class="cls-3" points="189 60.9 189 65 232 65 232 60.9 232 52.3 232 45 189 45 189 52.3 189 60.9"/>
      <polygon class="cls-5" points="232 95.2 232 86.6 232 86 189 86 189 86.6 189 95.2 189 103.7 189 110 232 110 232 103.7 232 95.2"/>
      <polygon class="cls-6" points="189 35.2 189 43.8 189 45 232 45 232 43.8 232 35.2 232 26.7 232 27 189 27 189 26.7 189 35.2"/>
      <polygon class="cls-1" points="189 138 189 146.5 189 155.1 189 164 197.7 164 206.2 164 214.7 164 223.2 164 231.8 164 240.3 164 248.8 164 257 164 257 155.1 257 146.5 257 138 248.8 138 240.3 138 232 138 232 136 189 136 189 138"/>
    </g>
    <g>
      <polygon class="cls-9" points="794 18.1 794 9.5 794 1 785.6 1 777 1 768.5 1 760 1 751 1 751 9.5 751 18.1 751 27 794 27 794 18.1"/>
      <polygon class="cls-7" points="794 120.9 794 112.3 794 110 751 110 751 112.3 751 120.9 751 129.4 751 136 794 136 794 129.4 794 120.9"/>
      <polygon class="cls-1" points="751 138 751 146.5 751 155.1 751 164 760 164 768.5 164 777 164 785.6 164 794 164 794 155.1 794 146.5 794 138 794 136 751 136 751 138"/>
      <polygon class="cls-4" points="751 69.5 751 78 828 78 828 69.5 828 65 751 65 751 69.5"/>
      <polygon class="cls-3" points="751 52.3 751 60.9 751 65 828 65 828 61 837 61 837 52.3 837 45 751 45 751 52.3"/>
      <polygon class="cls-8" points="751 78 751 86 828 86 828 78 828 78 751 78"/>
      <polygon class="cls-6" points="751 35.2 751 43.8 751 45 837 45 837 43.8 837 35.2 837 27 845 27 845 27 811 27 811 26.7 811 35 803 35 803 44 794 44 794 35.2 794 26.7 794 27 751 27 751 26.7 751 35.2"/>
      <polygon class="cls-5" points="751 86.6 751 95.2 751 103.7 751 110 794 110 794 104 803 104 803 110 837 110 837 103.7 837 95.2 837 87 828 87 828 86 751 86 751 86.6"/>
      <polygon class="cls-9" points="845 18.1 845 9.5 845 1 836.7 1 828.2 1 819.6 1 811 1 811 9.5 811 18.1 811 27 845 27 845 18.1"/>
      <polygon class="cls-1" points="811 138 811 146.5 811 155.1 811 164 819.6 164 828.2 164 836.7 164 845.2 164 854 164 854 155.1 854 147 845 147 845 138 845 136 811 136 811 138"/>
      <polygon class="cls-7" points="803 112.3 803 121 811 121 811 129.4 811 136 845 136 845 129.4 845 121 837 121 837 112.3 837 110 803 110 803 112.3"/>
    </g>
    <g>
      <polygon class="cls-4" points="360 69 360 78 419 78 419 69 410.7 69 402 69 402 65 351 65 351 69 360 69"/>
      <polygon class="cls-8" points="427.7 78 419 78 419 78 360 78 360 78 368.1 78 376.6 78 385 78 385 86 436 86 436 78 427.7 78"/>
      <polygon class="cls-9" points="394 18 402 18 402 27 445 27 445 18 436 18 436 10 428 10 428 1 419.2 1 410.7 1 402.2 1 393.6 1 385.1 1 376.6 1 368.1 1 360 1 360 10 351 10 351 18.1 351 27 394 27 394 18"/>
      <polygon class="cls-5" points="445 95.2 445 87 436 87 436 86 385 86 385 87 393.6 87 402 87 402 95.2 402 103.7 402 110 445 110 445 103.7 445 95.2"/>
      <polygon class="cls-7" points="385 129.4 385 120.9 385 112.3 385 110 351 110 351 112.3 351 120.9 351 129.4 351 136 385 136 385 129.4"/>
      <polygon class="cls-7" points="445 120.9 445 112.3 445 110 402 110 402 112.3 402 120.9 402 129.4 402 136 445 136 445 129.4 445 120.9"/>
      <polygon class="cls-3" points="410.7 52 419.2 52 427.7 52 436.2 52 445 52 445 45 402 45 402 52 410.7 52"/>
      <polygon class="cls-6" points="402 26.7 402 35.2 402 43.8 402 45 445 45 445 43.8 445 35.2 445 26.7 445 27 402 27 402 26.7"/>
      <polygon class="cls-3" points="351 52 351 60.9 351 65 402 65 402 61 393.6 61 385 61 385 52.3 385 45 343 45 343 52 351 52"/>
      <polygon class="cls-1" points="402 138 393.6 138 385 138 385 136 351 136 351 138 351 146.5 351 155 359.6 155 368.1 155 377 155 377 164 385.1 164 393.6 164 402.2 164 410.7 164 419 164 419 155 427.7 155 436 155 436 147 445 147 445 138 445 136 402 136 402 138"/>
      <polygon class="cls-6" points="343 27 343 35.2 343 43.8 343 45 385 45 385 43.8 385 35.2 385 27 394 27 394 27 351 27 351 27 343 27"/>
      <polygon class="cls-5" points="385 95 376.6 95 368.1 95 359.6 95 351 95 351 103.7 351 110 385 110 385 103.7 385 95"/>
    </g>
    <g>
      <polygon class="cls-8" points="581 78 547 78 547 78 547 86 581 86 581 78"/>
      <polygon class="cls-3" points="547 60.9 547 65 581 65 581 61 590 61 590 65 615 65 615 60.9 615 52.3 615 45 547 45 547 52.3 547 60.9"/>
      <polygon class="cls-6" points="556 35 547 35 547 43.8 547 45 615 45 615 43.8 615 35.2 615 26.7 615 27 556 27 556 26.7 556 35"/>
      <polygon class="cls-1" points="598 138 598 146.5 598 155.1 598 164 606.6 164 615.2 164 623.7 164 632 164 632 155.1 632 146.5 632 138 632 136 598 136 598 138"/>
      <polygon class="cls-4" points="547 78 581 78 581 69.5 581 65 547 65 547 69.5 547 78"/>
      <polygon class="cls-8" points="624 78 590 78 590 78 590 86 624 86 624 78"/>
      <polygon class="cls-4" points="590 78 624 78 624 69 615 69 615 65 590 65 590 69.5 590 78"/>
      <polygon class="cls-5" points="624 95.2 624 86.6 624 86 590 86 590 86.6 590 95.2 590 104 581.1 104 573 104 573 95.2 573 87 581 87 581 86 547 86 547 86.6 547 95 538 95 538 103.7 538 110 624 110 624 103.7 624 95.2"/>
      <polygon class="cls-9" points="615 18.1 615 9.5 615 1 606.6 1 598.1 1 589.6 1 581.1 1 572.6 1 564 1 556 1 556 9.5 556 18.1 556 27 615 27 615 18.1"/>
      <polygon class="cls-1" points="538 138 538 146.5 538 155.1 538 164 547 164 555.5 164 564 164 573 164 573 155.1 573 146.5 573 138 573 136 538 136 538 138"/>
      <polygon class="cls-7" points="624 129 624 120.9 624 112.3 624 110 538 110 538 112.3 538 120.9 538 129.4 538 136 573 136 573 129 581.1 129 589.6 129 598 129 598 136 632 136 632 129 624 129"/>
    </g>
    <g>
      <polygon class="cls-9" points="734 18.1 734 10 726 10 726 1 717.4 1 708.9 1 700.4 1 691.8 1 683.3 1 674.8 1 666.3 1 658 1 658 10 649 10 649 18 641 18 641 27 734 27 734 18.1"/>
      <polygon class="cls-1" points="700 138 691.8 138 683 138 683 136 641 136 641 138 641 147 649 147 649 155 658 155 658 164 666.3 164 674.8 164 683.3 164 691.8 164 700.4 164 708.9 164 717 164 717 155 725.9 155 734 155 734 146.5 734 138 734 136 700 136 700 138"/>
      <polygon class="cls-7" points="683 129.4 683 120.9 683 112.3 683 110 641 110 641 112.3 641 120.9 641 129.4 641 136 683 136 683 129.4"/>
      <polygon class="cls-6" points="641 35.2 641 43.8 641 45 683 45 683 43.8 683 35.2 683 27 691.8 27 700 27 700 35.2 700 43.8 700 45 743 45 743 43.8 743 35 734 35 734 26.7 734 27 641 27 641 26.7 641 35.2"/>
      <polygon class="cls-7" points="734 120.9 734 112.3 734 110 700 110 700 112.3 700 120.9 700 129.4 700 136 734 136 734 129.4 734 120.9"/>
      <polygon class="cls-8" points="641 78 641 86 683 86 683 78 683 78 641 78"/>
      <polygon class="cls-3" points="641 60.9 641 65 683 65 683 60.9 683 52.3 683 45 641 45 641 52.3 641 60.9"/>
      <polygon class="cls-4" points="641 78 683 78 683 69.5 683 65 641 65 641 69.5 641 78"/>
      <polygon class="cls-5" points="683 95.2 683 86.6 683 86 641 86 641 86.6 641 95.2 641 103.7 641 110 683 110 683 103.7 683 95.2"/>
      <polygon class="cls-5" points="734 95 725.9 95 717.4 95 708.9 95 700 95 700 103.7 700 110 734 110 734 103.7 734 95"/>
      <polygon class="cls-3" points="708.9 52 717.4 52 725.9 52 734.4 52 743 52 743 45 700 45 700 52 708.9 52"/>
    </g>
    <g>
      <polygon class="cls-3" points="470 60.9 470 65 513 65 513 60.9 513 52.3 513 45 470 45 470 52.3 470 60.9"/>
      <polygon class="cls-5" points="513 95.2 513 86.6 513 86 470 86 470 86.6 470 95.2 470 103.7 470 110 513 110 513 103.7 513 95.2"/>
      <polygon class="cls-9" points="530 18.1 530 9.5 530 1 521.4 1 512.9 1 504.4 1 495.9 1 487.4 1 478.8 1 470.3 1 461.8 1 453 1 453 9.5 453 18.1 453 27 530 27 530 18.1"/>
      <polygon class="cls-4" points="470 78 513 78 513 69.5 513 65 470 65 470 69.5 470 78"/>
      <polygon class="cls-1" points="470 138 470 146.5 470 155.1 470 164 478.8 164 487.4 164 495.9 164 504.4 164 513 164 513 155.1 513 146.5 513 138 513 136 470 136 470 138"/>
      <polygon class="cls-8" points="513 78 470 78 470 78 470 86 513 86 513 78"/>
      <polygon class="cls-6" points="461.8 27 470 27 470 35.2 470 43.8 470 45 513 45 513 43.8 513 35.2 513 27 521.4 27 530 27 530 27 453 27 453 27 461.8 27"/>
      <polygon class="cls-7" points="513 120.9 513 112.3 513 110 470 110 470 112.3 470 120.9 470 129.4 470 136 513 136 513 129.4 513 120.9"/>
    </g>
    <g>
      <polygon class="cls-8" points="121 78 121 78 78 78 78 78 78 86 121 86 121 78"/>
      <polygon class="cls-6" points="78 35.2 78 43.8 78 45 121 45 121 43.8 121 35.2 121 26.7 121 27 78 27 78 26.7 78 35.2"/>
      <polygon class="cls-9" points="181 18.1 181 9.5 181 1 172.1 1 163.6 1 155.1 1 146.6 1 138 1 138 9.5 138 18.1 138 27 181 27 181 18.1"/>
      <polygon class="cls-4" points="121 69.5 121 65 78 65 78 69.5 78 78 121 78 121 69.5"/>
      <polygon class="cls-6" points="138 35.2 138 43.8 138 45 181 45 181 43.8 181 35.2 181 26.7 181 27 138 27 138 26.7 138 35.2"/>
      <polygon class="cls-9" points="121 18.1 121 9.5 121 1 112.5 1 104 1 95.4 1 86.9 1 78 1 78 9.5 78 18.1 78 27 121 27 121 18.1"/>
      <polygon class="cls-5" points="121 95.2 121 86.6 121 86 78 86 78 86.6 78 95.2 78 103.7 78 110 121 110 121 103.7 121 95.2"/>
      <polygon class="cls-3" points="138 60.9 138 65 181 65 181 60.9 181 52.3 181 45 138 45 138 52.3 138 60.9"/>
      <polygon class="cls-3" points="78 60.9 78 65 121 65 121 60.9 121 52.3 121 45 78 45 78 52.3 78 60.9"/>
      <polygon class="cls-4" points="138 78 181 78 181 69.5 181 65 138 65 138 69.5 138 78"/>
      <polygon class="cls-7" points="121 129.4 121 120.9 121 112.3 121 110 78 110 78 112.3 78 120.9 78 129.4 78 136 121 136 121 129.4"/>
      <polygon class="cls-8" points="181 78 138 78 138 78 138 86 181 86 181 78"/>
      <polygon class="cls-5" points="181 95.2 181 86.6 181 86 138 86 138 86.6 138 95.2 138 103.7 138 110 181 110 181 103.7 181 95.2"/>
      <polygon class="cls-7" points="181 129 181 120.9 181 112.3 181 110 138 110 138 112.3 138 120.9 138 129.4 138 136 172 136 172 129 181 129"/>
      <polygon class="cls-1" points="138 138 129.5 138 121 138 121 136 78 136 78 138 78 147 87 147 87 155 95.4 155 104 155 104 164 112.5 164 121 164 129.5 164 138 164 146.6 164 155 164 155 155 163.6 155 172 155 172 146.5 172 138 172 136 138 136 138 138"/>
    </g>
    <polygon class="cls-1" points="515 326 515 318 524 318 524 309 524 307 524 300.4 524 291.9 524 283.3 524 281 524 274.7 524 266.2 524 258 515 258 515 257 515 249 506.7 249 498 249 498 240 489.7 240 481 240 481 236 481 232 472.6 232 464 232 464 223.3 464 216 464 214.8 464 206.2 464 198 473 198 473 189 481 189 481 197.7 481 198 481 206.2 481 214.8 481 216 481 223 489.7 223 498.2 223 506.7 223 515.2 223 524 223 524 216 524 214.8 524 206.2 524 198 524 197.7 524 189 515 189 515 181 507 181 507 172 498.2 172 489.7 172 481.2 172 472.6 172 464.1 172 455.6 172 447.1 172 439 172 439 181 430 181 430 189.1 430 198 422 198 422 206.2 422 214.8 422 216 422 223 430 223 430 231.9 430 236 430 240 439 240 439 249 447.1 249 455.6 249 464 249 464 257 464 258 472.6 258 481 258 481 266.2 481 274.7 481 281 481 283.3 481 291.9 481 300.4 481 307 481 309 472.6 309 464 309 464 307 464 300.4 464 291.9 464 283.3 464 281 464 274.7 464 266 455.6 266 447.1 266 438.6 266 430 266 430 274.7 430 281 430 283.3 430 291.9 430 300.4 430 307 430 309 430 317.5 430 326 438.6 326 447.1 326 456 326 456 335 464.1 335 472.6 335 481.2 335 489.7 335 498 335 498 326 506.7 326 515 326"/>
    <polygon class="cls-2" points="455 336 455 327 429 327 429 265 465 265 465 308 480 308 480 259 463 259 463 250 438 250 438 241 429 241 429 224 421 224 421 197 429 197 429 180 438 180 438 171 508 171 508 180 516 180 516 188 525 188 525 224 480 224 480 190 474 190 474 199 465 199 465 231 482 231 482 239 499 239 499 248 516 248 516 257 525 257 525 319 516 319 516 327 499 327 499 336 455 336"/>
    <polygon class="cls-4" points="439 240 439 249 498 249 498 240 489.7 240 481 240 481 236 430 236 430 240 439 240"/>
    <polygon class="cls-8" points="506.7 249 498 249 498 249 439 249 439 249 447.1 249 455.6 249 464 249 464 257 515 257 515 249 506.7 249"/>
    <polygon class="cls-9" points="473 189 481 189 481 198 524 198 524 189 515 189 515 181 507 181 507 172 498.2 172 489.7 172 481.2 172 472.6 172 464.1 172 455.6 172 447.1 172 439 172 439 181 430 181 430 189.1 430 198 473 198 473 189"/>
    <polygon class="cls-5" points="524 266.2 524 258 515 258 515 257 464 257 464 258 472.6 258 481 258 481 266.2 481 274.7 481 281 524 281 524 274.7 524 266.2"/>
    <polygon class="cls-7" points="464 300.4 464 291.9 464 283.3 464 281 430 281 430 283.3 430 291.9 430 300.4 430 307 464 307 464 300.4"/>
    <polygon class="cls-7" points="524 291.9 524 283.3 524 281 481 281 481 283.3 481 291.9 481 300.4 481 307 524 307 524 300.4 524 291.9"/>
    <polygon class="cls-3" points="489.7 223 498.2 223 506.7 223 515.2 223 524 223 524 216 481 216 481 223 489.7 223"/>
    <polygon class="cls-6" points="481 197.7 481 206.2 481 214.8 481 216 524 216 524 214.8 524 206.2 524 197.7 524 198 481 198 481 197.7"/>
    <polygon class="cls-3" points="430 223 430 231.9 430 236 481 236 481 232 472.6 232 464 232 464 223.3 464 216 422 216 422 223 430 223"/>
    <polygon class="cls-1" points="481 309 472.6 309 464 309 464 307 430 307 430 309 430 317.5 430 326 438.6 326 447.1 326 456 326 456 335 464.1 335 472.6 335 481.2 335 489.7 335 498 335 498 326 506.7 326 515 326 515 318 524 318 524 309 524 307 481 307 481 309"/>
    <polygon class="cls-6" points="422 198 422 206.2 422 214.8 422 216 464 216 464 214.8 464 206.2 464 198 473 198 473 198 430 198 430 198 422 198"/>
    <polygon class="cls-5" points="464 266 455.6 266 447.1 266 438.6 266 430 266 430 274.7 430 281 464 281 464 274.7 464 266"/>
  </g>
</svg>
