<?xml version="1.0" encoding="utf-8"?>
<!DOCTYPE svg PUBLIC "-//W3C//DTD SVG 1.1//EN" "http://www.w3.org/Graphics/SVG/1.1/DTD/svg11.dtd">
<svg xmlns="http://www.w3.org/2000/svg" xmlns:xlink="http://www.w3.org/1999/xlink" version="1.1" baseProfile="full" width="81.4312" height="32" viewBox="0 0 81.43 32.00" enable-background="new 0 0 81.43 32.00" xml:space="preserve">
	<path fill="#FFFFFF" fill-opacity="1" stroke-linejoin="round" d="M 51.1472,18.9547L 51.1472,16.288L 58.6671,16.288L 58.6671,18.9547L 57.0519,18.9547L 57.0519,31.9984L 52.8615,31.9984L 52.8615,18.9547L 51.1472,18.9547 Z M 32.5704,17.143L 32.5704,16.2896L 38.3837,16.2896L 38.3837,18.9563L 35.999,18.9563L 35.999,22.0039L 38.3837,22.0039L 38.3837,24.6706L 35.999,24.6706L 35.999,29.3334L 38.3837,29.3334L 38.3837,32L 31.7171,32L 31.7171,17.143L 32.5704,17.143 Z M 24.38,17.1429L 24.38,16.2896L 30.2847,16.2896L 30.2847,18.9563L 27.8085,18.9563L 27.8085,22.0039L 30.2847,22.0039L 30.2847,24.6705L 27.8085,24.6705L 27.8085,32L 23.6181,32L 23.6181,17.1429L 24.38,17.1429 Z M 0.761902,0.861105L 0.761902,0.000143051L 6.66579,0.000143051L 6.66579,2.66677L 4.19044,2.66677L 4.19044,5.71438L 6.66579,5.71438L 6.66579,8.38106L 4.19044,8.38106L 4.19044,15.7182L 0,15.7182L 0,0.861105L 0.761902,0.861105 Z M 29.4314,0.000143051L 29.4314,13.0515L 31.9076,13.0515L 31.9076,15.7182L 25.241,15.7182L 25.241,0.000143051L 29.4314,0.000143051 Z M 22.1934,8.2016e-005L 22.1934,13.0515L 24.5705,13.0515L 24.5705,15.7182L 17.9039,15.7182L 17.9039,8.2016e-005L 22.1934,8.2016e-005 Z M 76.3799,11.6191L 76.3799,10.0039L 75.717,10.0039L 75.717,15.7181L 71.4275,15.7181L 71.4275,8.2016e-005L 75.717,8.2016e-005L 75.717,4.09914L 76.3799,4.09914L 76.3799,3.23818L 77.1417,3.23818L 77.1417,8.2016e-005L 80.5703,8.2016e-005L 80.5703,2.66677L 79.8084,2.66677L 79.8084,5.90481L 78.955,5.90481L 78.955,8.19051L 79.8084,8.19051L 79.8084,11.4286L 80.5703,11.4286L 80.5703,13.9048L 81.4312,13.9048L 81.4312,15.7181L 77.1417,15.7181L 77.1417,11.6191L 76.3799,11.6191 Z M 33.3324,14.8572L 33.3324,8.95241L 36.7609,8.95241L 36.7609,13.0514L 38.1933,13.0514L 38.1933,8.381L 36.5705,8.381L 36.5705,7.52767L 34.1934,7.52767L 34.1934,6.66671L 33.3324,6.66671L 33.3324,5.05147L 32.5705,5.05147L 32.5705,2.47622L 33.3324,2.47622L 33.3324,0.860983L 34.1934,0.860983L 34.1934,8.2016e-005L 40.86,8.2016e-005L 40.86,0.860983L 41.6219,0.860983L 41.6219,1.62295L 42.4752,1.62295L 42.4752,5.05147L 38.1933,5.05147L 38.1933,1.81338L 37.6219,1.81338L 37.6219,2.66677L 36.7609,2.66677L 36.7609,5.71438L 38.3838,5.71438L 38.3838,6.47622L 39.999,6.47622L 39.999,7.33718L 41.6219,7.33718L 41.6219,8.19051L 42.4752,8.19051L 42.4752,14.0952L 41.6219,14.0952L 41.6219,14.8572L 39.999,14.8572L 39.999,15.7181L 35.8086,15.7181L 35.8086,14.8572L 33.3324,14.8572 Z M 56.8599,15.7181L 56.8599,12.381L 54.6657,12.381L 54.6657,15.7181L 51.1457,15.7181L 51.1457,8.95241L 51.999,8.95241L 51.999,3.23818L 52.8599,3.23818L 52.8599,2.09808e-005L 58.6656,2.09808e-005L 58.6656,6.47622L 59.5266,6.47622L 59.5266,12.1905L 60.2885,12.1905L 60.2885,15.7181L 56.8599,15.7181 Z M 56.098,9.81338L 56.098,5.90481L 55.4276,5.90481L 55.4276,8.381L 54.6657,8.381L 54.6657,9.81338L 56.098,9.81338 Z M 61.7133,14.8571L 61.7133,14.0952L 60.9514,14.0952L 60.9514,1.62295L 61.7133,1.62295L 61.7133,0.860983L 62.5742,0.860983L 62.5742,2.09808e-005L 69.2408,2.09808e-005L 69.2408,0.860983L 70.0027,0.860983L 70.0027,3.23812L 70.8561,3.23812L 70.8561,5.05147L 66.5742,5.05147L 66.5742,2.66671L 65.1418,2.66671L 65.1418,13.0514L 66.5742,13.0514L 66.5742,8.95241L 70.0027,8.95241L 70.0027,14.8571L 68.3799,14.8571L 68.3799,15.718L 62.5742,15.718L 62.5742,14.8571L 61.7133,14.8571 Z M 43.0467,2.66671L 43.0467,2.09808e-005L 50.5743,2.09808e-005L 50.5743,2.66671L 48.9514,2.66671L 48.9514,15.718L 44.6695,15.718L 44.6695,2.66671L 43.0467,2.66671 Z M 8.1897,14.8571L 8.1897,14.0952L 7.33636,14.0952L 7.33636,2.09808e-005L 11.6182,2.09808e-005L 11.6182,13.0514L 13.0506,13.0514L 13.0506,2.09808e-005L 17.3325,2.09808e-005L 17.3325,12.3809L 16.4792,12.3809L 16.4792,14.8571L 14.8563,14.8571L 14.8563,15.718L 9.81255,15.718L 9.81255,14.8571L 8.1897,14.8571 Z M 40.8615,31.1452L 40.8615,25.2404L 44.29,25.2404L 44.29,29.3318L 45.7148,29.3318L 45.7148,24.669L 44.0995,24.669L 44.0995,23.808L 41.7148,23.808L 41.7148,22.9547L 40.8615,22.9547L 40.8615,21.3319L 40.0995,21.3319L 40.0995,18.7642L 40.8615,18.7642L 40.8615,17.1414L 41.7148,17.1414L 41.7148,16.288L 48.3814,16.288L 48.3814,17.1414L 49.1433,17.1414L 49.1433,17.9033L 50.0043,17.9033L 50.0043,21.3319L 45.7148,21.3319L 45.7148,18.0938L 45.1434,18.0938L 45.1434,18.9547L 44.29,18.9547L 44.29,22.0023L 45.9053,22.0023L 45.9053,22.7642L 47.5281,22.7642L 47.5281,23.6176L 49.1433,23.6176L 49.1433,24.4785L 50.0043,24.4785L 50.0043,30.3832L 49.1433,30.3832L 49.1433,31.1452L 47.5281,31.1452L 47.5281,31.9984L 43.3376,31.9984L 43.3376,31.1452L 40.8615,31.1452 Z "/>
</svg>
