<?xml version="1.0" encoding="utf-8"?>
<!DOCTYPE svg PUBLIC "-//W3C//DTD SVG 1.1//EN" "http://www.w3.org/Graphics/SVG/1.1/DTD/svg11.dtd">
<svg xmlns="http://www.w3.org/2000/svg" xmlns:xlink="http://www.w3.org/1999/xlink" version="1.1" baseProfile="full" width="111.663" height="27.0782" viewBox="0 0 111.66 27.08" enable-background="new 0 0 111.66 27.08" xml:space="preserve">
	<g>
		<path fill="#000000" fill-opacity="1" stroke-linejoin="round" d="M 7.66808,21.2159C 6.96437,21.2159 6.38498,20.9768 5.92989,20.4984C 5.47481,20.02 5.24727,19.4174 5.24727,18.6904C 5.24727,17.9635 5.46827,17.3651 5.91027,16.8955C 6.35226,16.4259 6.91494,16.1911 7.59829,16.1911C 8.35434,16.1911 8.99844,15.9316 9.53057,15.4125C 10.0627,14.8935 10.3288,14.2646 10.3288,13.526C 10.3288,12.7874 10.0693,12.1629 9.5502,11.6526C 9.03115,11.1423 8.40232,10.8871 7.66372,10.8871C 6.92512,10.8871 6.30065,11.1576 5.79031,11.6984C 5.27998,12.2393 5.02482,12.9008 5.02482,13.6831L 5.02482,24.6181C 5.02482,25.3247 4.78564,25.9114 4.3073,26.3781C 3.82895,26.8448 3.2263,27.0782 2.49932,27.0782C 1.77235,27.0782 1.17406,26.8433 0.704433,26.3737C 0.23481,25.9041 0,25.3131 0,24.6007L 0,13.6002C 0,11.4047 0.733513,9.56624 2.20054,8.08468C 3.66756,6.60311 5.48862,5.86233 7.66372,5.86233C 9.8359,5.86233 11.6606,6.59579 13.1378,8.06283C 14.615,9.52987 15.3536,11.3509 15.3536,13.526C 15.3536,15.6982 14.6157,17.5229 13.14,19.0001C 11.6642,20.4773 9.84027,21.2159 7.66808,21.2159 Z "/>
		<path fill="#000000" fill-opacity="1" stroke-linejoin="round" d="M 30.5458,20.5311C 30.0689,20.9876 29.467,21.2159 28.74,21.2159C 28.0131,21.2159 27.4148,20.9906 26.9451,20.5398C 26.4755,20.0891 26.2407,19.5133 26.2407,18.8126L 26.2407,13.6482C 26.2407,12.8747 25.9812,12.2212 25.4621,11.6875C 24.9431,11.1539 24.3142,10.8871 23.5756,10.8871C 22.837,10.8871 22.2126,11.1423 21.7022,11.6526C 21.1919,12.1629 20.9367,12.7874 20.9367,13.526C 20.9367,14.2646 21.1992,14.8935 21.724,15.4125C 22.2489,15.9316 22.8923,16.1911 23.6542,16.1911C 24.3433,16.1911 24.914,16.4259 25.3662,16.8955C 25.8183,17.3651 26.0444,17.9635 26.0444,18.6904C 26.0444,19.4174 25.8118,20.02 25.3465,20.4984C 24.8813,20.9768 24.2953,21.2159 23.5887,21.2159C 21.4107,21.2159 19.5868,20.4773 18.1168,19.0001C 16.6469,17.5229 15.9119,15.6982 15.9119,13.526C 15.9119,11.3509 16.6454,9.52987 18.1125,8.06283C 19.5795,6.59579 21.4005,5.86233 23.5756,5.86233C 25.7478,5.86233 27.5725,6.59871 29.0497,8.07155C 30.5269,9.54439 31.2655,11.3713 31.2655,13.5522L 31.2655,18.782C 31.2655,19.4915 31.0256,20.0745 30.5458,20.5311 Z "/>
		<path fill="#000000" fill-opacity="1" stroke-linejoin="round" d="M 48.5558,26.4326C 48.0818,26.863 47.4842,27.0782 46.7631,27.0782L 46.6497,27.0782C 44.7275,27.0782 43.1253,26.4646 41.8429,25.2375C 40.5606,24.0104 39.9194,22.4794 39.9194,20.6445L 39.9194,19.3621L 39.9194,12.5228C 39.9194,12.0692 39.7711,11.6832 39.4745,11.3647C 39.1779,11.0463 38.8187,10.8871 38.3971,10.8871C 37.958,10.8871 37.5902,11.0434 37.2936,11.356C 36.997,11.6686 36.8487,12.0648 36.8487,12.5446L 36.8487,18.8126C 36.8487,19.5133 36.6095,20.0891 36.1311,20.5398C 35.6528,20.9906 35.0501,21.2159 34.3232,21.2159C 33.5962,21.2159 32.9979,20.9876 32.5283,20.5311C 32.0586,20.0745 31.8238,19.4915 31.8238,18.782L 31.8238,12.4356C 31.8238,10.5716 32.4541,9.01009 33.7147,7.75094C 34.9752,6.49184 36.5317,5.86233 38.384,5.86233C 40.2363,5.86233 41.7928,6.49044 43.0533,7.7466C 44.3139,9.00283 44.9442,10.5614 44.9442,12.4224L 44.9442,20.7448C 44.9442,21.2276 45.1092,21.6317 45.4393,21.9574C 45.7693,22.2831 46.18,22.4459 46.6715,22.4459L 46.7805,22.4459C 47.4988,22.4459 48.0934,22.6662 48.5645,23.1068C 49.0356,23.5473 49.2711,24.1034 49.2711,24.7752C 49.2711,25.4469 49.0327,25.9993 48.5558,26.4326 Z "/>
		<path fill="#000000" fill-opacity="1" stroke-linejoin="round" d="M 53.1662,21.2159C 51.0115,21.2159 49.1955,20.4773 47.7183,19.0001C 46.2411,17.5229 45.5025,15.7069 45.5025,13.5522C 45.5025,11.38 46.2375,9.55532 47.7074,8.07808C 49.1773,6.60091 51.0013,5.86233 53.1793,5.86233C 53.8859,5.86233 54.4719,6.10146 54.9371,6.57979C 55.4024,7.05819 55.635,7.66085 55.635,8.38778C 55.635,9.11477 55.4089,9.71309 54.9567,10.1827C 54.5046,10.6523 53.9339,10.8871 53.2447,10.8871C 52.4829,10.8871 51.8395,11.1467 51.3146,11.6657C 50.7897,12.1848 50.5273,12.8136 50.5273,13.5522C 50.5273,14.2908 50.7825,14.9152 51.2928,15.4256C 51.8031,15.9359 52.4276,16.1911 53.1662,16.1911C 53.9048,16.1911 54.5336,15.9207 55.0527,15.3798C 55.5718,14.8389 55.8313,14.1774 55.8313,13.3952L 55.8313,2.43392C 55.8313,1.74471 56.0705,1.16683 56.5488,0.700094C 57.0271,0.233358 57.6211,2.09808e-005 58.3306,2.09808e-005C 59.0576,2.09808e-005 59.6602,0.229757 60.1386,0.689169C 60.6169,1.14864 60.8561,1.73458 60.8561,2.44698L 60.8561,13.478C 60.8561,15.6532 60.1131,17.4865 58.6272,18.9783C 57.1413,20.4701 55.3209,21.2159 53.1662,21.2159 Z "/>
		<path fill="#000000" fill-opacity="1" stroke-linejoin="round" d="M 76.0483,20.5311C 75.5714,20.9876 74.9695,21.2159 74.2425,21.2159C 73.5155,21.2159 72.9173,20.9906 72.4476,20.5398C 71.978,20.0891 71.7432,19.5133 71.7432,18.8126L 71.7432,13.6482C 71.7432,12.8747 71.4837,12.2212 70.9646,11.6875C 70.4456,11.1539 69.8167,10.8871 69.0781,10.8871C 68.3395,10.8871 67.7151,11.1423 67.2047,11.6526C 66.6944,12.1629 66.4392,12.7874 66.4392,13.526C 66.4392,14.2646 66.7017,14.8935 67.2265,15.4125C 67.7514,15.9316 68.3948,16.1911 69.1566,16.1911C 69.8458,16.1911 70.4165,16.4259 70.8687,16.8955C 71.3208,17.3651 71.5469,17.9635 71.5469,18.6904C 71.5469,19.4174 71.3143,20.02 70.849,20.4984C 70.3838,20.9768 69.7978,21.2159 69.0912,21.2159C 66.9132,21.2159 65.0892,20.4773 63.6193,19.0001C 62.1494,17.5229 61.4144,15.6982 61.4144,13.526C 61.4144,11.3509 62.1479,9.52987 63.6149,8.06283C 65.082,6.59579 66.903,5.86233 69.0781,5.86233C 71.2503,5.86233 73.075,6.59871 74.5522,8.07155C 76.0294,9.54439 76.768,11.3713 76.768,13.5522L 76.768,18.782C 76.768,19.4915 76.5281,20.0745 76.0483,20.5311 Z "/>
		<path fill="#000000" fill-opacity="1" stroke-linejoin="round" d="M 84.9944,21.2159C 84.2907,21.2159 83.7113,20.9768 83.2562,20.4984C 82.8011,20.02 82.5736,19.4174 82.5736,18.6904C 82.5736,17.9635 82.7946,17.3651 83.2366,16.8955C 83.6786,16.4259 84.2413,16.1911 84.9246,16.1911C 85.6807,16.1911 86.3248,15.9316 86.8569,15.4125C 87.389,14.8935 87.6551,14.2646 87.6551,13.526C 87.6551,12.7874 87.3956,12.1629 86.8765,11.6526C 86.3575,11.1423 85.7286,10.8871 84.9901,10.8871C 84.2514,10.8871 83.627,11.1576 83.1166,11.6984C 82.6063,12.2393 82.3511,12.9008 82.3511,13.6831L 82.3511,24.6181C 82.3511,25.3247 82.112,25.9114 81.6336,26.3781C 81.1553,26.8448 80.5526,27.0782 79.8257,27.0782C 79.0987,27.0782 78.5004,26.8433 78.0308,26.3737C 77.5611,25.9041 77.3263,25.3131 77.3263,24.6007L 77.3263,13.6002C 77.3263,11.4047 78.0598,9.56624 79.5269,8.08468C 80.9939,6.60311 82.8149,5.86233 84.9901,5.86233C 87.1622,5.86233 88.9869,6.59579 90.4641,8.06283C 91.9413,9.52987 92.6799,11.3509 92.6799,13.526C 92.6799,15.6982 91.942,17.5229 90.4663,19.0001C 88.9906,20.4773 87.1666,21.2159 84.9944,21.2159 Z "/>
		<path fill="#000000" fill-opacity="1" stroke-linejoin="round" d="M 95.8902,5.86233C 95.0731,5.86233 94.3803,5.57808 93.8118,5.0096C 93.2433,4.44106 92.9591,3.74825 92.9591,2.93117C 92.9591,2.11403 93.2433,1.42122 93.8118,0.852743C 94.3803,0.284262 95.0731,2.09808e-005 95.8902,2.09808e-005C 96.7074,2.09808e-005 97.4001,0.284262 97.9686,0.852743C 98.5371,1.42122 98.8214,2.11403 98.8214,2.93117C 98.8214,3.74825 98.5371,4.44106 97.9686,5.0096C 97.4001,5.57808 96.7074,5.86233 95.8902,5.86233 Z M 97.5434,20.5311C 97.0665,20.9876 96.4645,21.2159 95.7376,21.2159C 95.0106,21.2159 94.4123,20.9876 93.9427,20.5311C 93.4731,20.0745 93.2382,19.4915 93.2382,18.782L 93.2382,8.29622C 93.2382,7.58669 93.4731,7.00362 93.9427,6.54708C 94.4123,6.09054 95.0106,5.86233 95.7376,5.86233C 96.482,5.86233 97.089,6.0862 97.5586,6.53402C 98.0282,6.98183 98.2631,7.56923 98.2631,8.29622L 98.2631,18.782C 98.2631,19.4915 98.0231,20.0745 97.5434,20.5311 Z "/>
		<path fill="#000000" fill-opacity="1" stroke-linejoin="round" d="M 110.956,20.5311C 110.488,20.9876 109.89,21.2159 109.163,21.2159C 108.457,21.2159 107.859,20.9884 107.371,20.5333C 106.882,20.0782 106.638,19.5148 106.638,18.8431L 106.638,18.1321C 106.638,17.6785 106.489,17.2881 106.193,16.961C 105.896,16.6338 105.537,16.4702 105.115,16.4702C 104.676,16.4702 104.309,16.6295 104.012,16.9478C 103.715,17.2663 103.567,17.661 103.567,18.1321L 103.567,18.8431C 103.567,19.5351 103.328,20.1037 102.85,20.5485C 102.371,20.9935 101.769,21.2159 101.042,21.2159C 100.315,21.2159 99.7163,20.9876 99.2467,20.5311C 98.777,20.0745 98.5422,19.4915 98.5422,18.782L 98.5422,18.0535C 98.5422,16.2827 99.1369,14.7735 100.326,13.526C 99.1369,12.296 98.5422,10.7955 98.5422,9.02462L 98.5422,8.29622C 98.5422,7.58669 98.777,7.00362 99.2467,6.54708C 99.7163,6.09054 100.315,5.86233 101.042,5.86233C 101.786,5.86233 102.393,6.08187 102.863,6.52096C 103.332,6.96004 103.567,7.53579 103.567,8.24825L 103.567,8.96358C 103.567,9.43758 103.715,9.8301 104.012,10.1413C 104.309,10.4524 104.676,10.608 105.115,10.608C 105.537,10.608 105.896,10.448 106.193,10.1281C 106.489,9.80831 106.638,9.42013 106.638,8.96358L 106.638,8.24825C 106.638,7.55324 106.877,6.98183 107.355,6.53402C 107.834,6.0862 108.436,5.86233 109.163,5.86233C 109.89,5.86233 110.489,6.09054 110.958,6.54708C 111.428,7.00362 111.663,7.58669 111.663,8.29622L 111.663,9.02462C 111.663,10.7955 111.075,12.296 109.9,13.526C 111.075,14.7735 111.663,16.2827 111.663,18.0535L 111.663,18.782C 111.663,19.4915 111.427,20.0745 110.956,20.5311 Z "/>
	</g>
</svg>
